<svg aria-hidden="true" style="position: absolute; width: 0; height: 0; overflow: hidden;" version="1.1" xmlns="http://www.w3.org/2000/svg" xmlns:xlink="http://www.w3.org/1999/xlink">
<defs>

<symbol id="beard">
<svg version="1.1" xmlns="http://www.w3.org/2000/svg" width="32" height="32" viewBox="0 0 32 32">
<title>hipster</title>
<path d="M16 32c8.837 0 16-7.163 16-16s-7.163-16-16-16-16 7.163-16 16 7.163 16 16 16zM16 3c7.18 0 13 5.82 13 13s-5.82 13-13 13-13-5.82-13-13 5.82-13 13-13zM8 10c0-1.105 0.895-2 2-2s2 0.895 2 2-0.895 2-2 2-2-0.895-2-2zM20 10c0-1.105 0.895-2 2-2s2 0.895 2 2-0.895 2-2 2-2-0.895-2-2z"></path>
<path d="M21.121 16.879c-1.172-1.172-3.071-1.172-4.243 0s-1.172 3.071 0 4.243c0.038 0.038 0.076 0.074 0.115 0.109 2.704 2.453 9.006-0.058 9.006-3.23-1.938 1.25-3.452 0.306-4.879-1.121z"></path>
<path d="M10.879 16.879c1.172-1.172 3.071-1.172 4.243 0s1.172 3.071 0 4.243c-0.038 0.038-0.076 0.074-0.115 0.109-2.704 2.453-9.006-0.058-9.006-3.23 1.938 1.25 3.452 0.306 4.879-1.121z"></path>
</svg>
</symbol>


<symbol id="icon-evil" viewBox="0 0 32 32">
<path d="M20 14c-1.105 0-2-0.895-2-2 0-0.037 0.001-0.073 0.003-0.109 0.064-1.483 1.413-2.467 2.55-3.036 1.086-0.543 2.159-0.814 2.205-0.826 0.536-0.134 1.079 0.192 1.213 0.728s-0.192 1.079-0.728 1.213c-0.551 0.139-1.204 0.379-1.779 0.667 0.333 0.357 0.537 0.836 0.537 1.363 0 1.105-0.895 2-2 2zM8.758 9.97c-0.536-0.134-0.862-0.677-0.728-1.213s0.677-0.862 1.213-0.728c0.045 0.011 1.119 0.283 2.205 0.826 1.137 0.568 2.486 1.553 2.55 3.036 0.002 0.036 0.003 0.072 0.003 0.109 0 1.105-0.895 2-2 2s-2-0.895-2-2c0-0.527 0.204-1.005 0.537-1.363-0.575-0.288-1.229-0.528-1.779-0.667zM16 23c2.549 0 4.779-1.362 6.003-3.398l2.573 1.544c-1.749 2.908-4.935 4.855-8.576 4.855s-6.827-1.946-8.576-4.855l2.573-1.544c1.224 2.036 3.454 3.398 6.003 3.398zM32 2c0-1.422-0.298-2.775-0.833-4-1.049 2.401-3.014 4.31-5.453 5.287-2.694-2.061-6.061-3.287-9.714-3.287s-7.021 1.226-9.714 3.287c-2.439-0.976-4.404-2.886-5.453-5.287-0.535 1.225-0.833 2.578-0.833 4 0 2.299 0.777 4.417 2.081 6.106-1.324 2.329-2.081 5.023-2.081 7.894 0 8.837 7.163 16 16 16s16-7.163 16-16c0-2.871-0.757-5.565-2.081-7.894 1.304-1.689 2.081-3.806 2.081-6.106zM16 29c-7.18 0-13-5.82-13-13s5.82-13 13-13 13 5.82 13 13-5.82 13-13 13z"></path>
</symbol>
<symbol id="icon-scissors" viewBox="0 0 32 32">
<path d="M28.557 21.24c-2.084-3.256-5.659-4.689-7.985-3.201-0.201 0.129-0.385 0.275-0.555 0.437l-2.483-3.883 5.733-8.999c0.469-0.867 0.642-1.899 0.415-2.937-0.218-0.992-0.766-1.826-1.503-2.413l-0.384-0.244-6.796 10.629-6.796-10.629-0.384 0.244c-0.737 0.587-1.285 1.421-1.503 2.413-0.228 1.038-0.055 2.070 0.415 2.937l5.733 8.999-2.483 3.883c-0.169-0.162-0.354-0.308-0.554-0.437-2.326-1.488-5.901-0.055-7.985 3.201s-1.887 7.103 0.438 8.591c2.326 1.488 5.901 0.055 7.985-3.201l5.134-8.058 5.134 8.058c2.084 3.256 5.659 4.689 7.985 3.201s2.522-5.335 0.438-8.591zM7.339 25.013c-0.938 1.466-2.142 2.179-2.955 2.358-0 0-0 0-0 0-0.265 0.058-0.634 0.094-0.885-0.067-0.278-0.178-0.463-0.648-0.494-1.259-0.050-0.989 0.301-2.151 0.965-3.189 0.938-1.466 2.142-2.179 2.955-2.358 0.266-0.058 0.635-0.094 0.886 0.066 0.278 0.178 0.463 0.648 0.494 1.259 0.051 0.989-0.301 2.151-0.965 3.189zM15 16c-0.552 0-1-0.448-1-1s0.448-1 1-1 1 0.448 1 1-0.448 1-1 1zM26.995 26.046c-0.031 0.61-0.216 1.081-0.494 1.259-0.251 0.161-0.62 0.125-0.885 0.067 0 0 0 0-0 0-0.814-0.179-2.017-0.892-2.955-2.358-0.664-1.037-1.016-2.2-0.965-3.189 0.031-0.61 0.216-1.081 0.494-1.259 0.251-0.16 0.62-0.125 0.886-0.066 0.814 0.179 2.017 0.892 2.955 2.358 0.664 1.037 1.016 2.2 0.965 3.189z"></path>
</symbol>
<symbol id="icon-reddit" viewBox="0 0 32 32">
<path d="M8 20c0-1.105 0.895-2 2-2s2 0.895 2 2c0 1.105-0.895 2-2 2s-2-0.895-2-2zM20 20c0-1.105 0.895-2 2-2s2 0.895 2 2c0 1.105-0.895 2-2 2s-2-0.895-2-2zM20.097 24.274c0.515-0.406 1.262-0.317 1.668 0.198s0.317 1.262-0.198 1.668c-1.434 1.13-3.619 1.86-5.567 1.86s-4.133-0.73-5.567-1.86c-0.515-0.406-0.604-1.153-0.198-1.668s1.153-0.604 1.668-0.198c0.826 0.651 2.46 1.351 4.097 1.351s3.271-0.7 4.097-1.351zM32 16c0-2.209-1.791-4-4-4-1.504 0-2.812 0.83-3.495 2.057-2.056-1.125-4.561-1.851-7.29-2.019l2.387-5.36 4.569 1.319c0.411 1.167 1.522 2.004 2.83 2.004 1.657 0 3-1.343 3-3s-1.343-3-3-3c-1.142 0-2.136 0.639-2.642 1.579l-5.091-1.47c-0.57-0.164-1.173 0.116-1.414 0.658l-3.243 7.282c-2.661 0.187-5.102 0.907-7.114 2.007-0.683-1.227-1.993-2.056-3.496-2.056-2.209 0-4 1.791-4 4 0 1.635 0.981 3.039 2.387 3.659-0.252 0.751-0.387 1.535-0.387 2.341 0 5.523 6.268 10 14 10s14-4.477 14-10c0-0.806-0.134-1.589-0.387-2.34 1.405-0.62 2.387-2.025 2.387-3.66zM27 5.875c0.621 0 1.125 0.504 1.125 1.125s-0.504 1.125-1.125 1.125-1.125-0.504-1.125-1.125 0.504-1.125 1.125-1.125zM2 16c0-1.103 0.897-2 2-2 0.797 0 1.487 0.469 1.808 1.145-1.045 0.793-1.911 1.707-2.552 2.711-0.735-0.296-1.256-1.016-1.256-1.856zM16 29.625c-6.42 0-11.625-3.414-11.625-7.625s5.205-7.625 11.625-7.625c6.42 0 11.625 3.414 11.625 7.625s-5.205 7.625-11.625 7.625zM28.744 17.856c-0.641-1.003-1.507-1.918-2.552-2.711 0.321-0.676 1.011-1.145 1.808-1.145 1.103 0 2 0.897 2 2 0 0.84-0.52 1.56-1.256 1.856z"></path>
</symbol>
</defs>
</svg>
